<?xml version="1.0" encoding="UTF-8" standalone="no"?>
<svg
   xmlns:dc="http://purl.org/dc/elements/1.1/"
   xmlns:cc="http://creativecommons.org/ns#"
   xmlns:rdf="http://www.w3.org/1999/02/22-rdf-syntax-ns#"
   xmlns:svg="http://www.w3.org/2000/svg"
   xmlns="http://www.w3.org/2000/svg"
   xmlns:sodipodi="http://sodipodi.sourceforge.net/DTD/sodipodi-0.dtd"
   xmlns:inkscape="http://www.inkscape.org/namespaces/inkscape"
   version="1.1"
   width="538.58276"
   height="91.740402"
   id="svg20"
   viewBox="0 0 538.58276 91.740402"
   sodipodi:docname="Logotipo.svg"
   inkscape:export-filename="logo_oxisteel.png"
   inkscape:export-xdpi="96"
   inkscape:export-ydpi="96"
   inkscape:version="0.92.1 r15371">
  <metadata
     id="metadata26">
    <rdf:RDF>
      <cc:Work
         rdf:about="">
        <dc:format>image/svg+xml</dc:format>
        <dc:type
           rdf:resource="http://purl.org/dc/dcmitype/StillImage" />
        <dc:title></dc:title>
      </cc:Work>
    </rdf:RDF>
  </metadata>
  <defs
     id="defs24" />
  <sodipodi:namedview
     pagecolor="#ffffff"
     bordercolor="#666666"
     borderopacity="1"
     objecttolerance="10"
     gridtolerance="10"
     guidetolerance="10"
     inkscape:pageopacity="0"
     inkscape:pageshadow="2"
     inkscape:window-width="1024"
     inkscape:window-height="715"
     id="namedview22"
     showgrid="false"
     fit-margin-top="0"
     fit-margin-left="0"
     fit-margin-right="0"
     fit-margin-bottom="0"
     inkscape:zoom="0.56064347"
     inkscape:cx="274.11322"
     inkscape:cy="-251.98824"
     inkscape:window-x="1358"
     inkscape:window-y="-8"
     inkscape:window-maximized="1"
     inkscape:current-layer="svg20" />
  <path
     d="m 67.674061,45.5698 c -6.6949,0.0829 -13.0066,0.654 -18.8957,1.4836 -5.9047,0.846 -11.3236,1.9576 -16.2899,3.3346 -4.9515,1.3602 -9.424,2.8867 -13.3371,4.5622 -3.8974,1.6591 -7.2423,3.3678 -9.9863996,5.1098 -2.7592,1.7584 -4.828,3.4174 -6.3031,5.0103 -1.96420004,2.1566 -2.94300004,4.3631 -2.85660004,6.6028 0.0541,2.2397 1.26440004,4.38 3.57970004,6.4038 1.5489,1.3438 3.7016,2.5383 6.4427996,3.6002 2.7409,1.0617 6.1296,1.8912 10.1831,2.505 4.0536,0.6139 8.8168,0.9289 14.2545,0.9456 l 6.536,0.0165 h 52.5254 c 5.4355,-0.0165 10.730999,-0.3317 15.888499,-0.9456 5.1911,-0.6136 10.1157,-1.4431 14.8235,-2.505 4.7078,-1.0617 9.0733,-2.2562 13.1444,-3.6 6.0644,-2.024 11.2387,-4.1641 15.4745,-6.4038 4.2358,-2.2397 7.3767,-4.4462 9.4229,-6.6195 1.2468,-1.3108 2.172,-2.7042 2.7772,-4.1476 0.5895,-1.4267 0.7959,-2.87 0.5361,-4.3134 -0.2258,-1.4434 -0.9793,-2.8204 -2.2775,-4.1474 -1.2979,-1.3273 -3.2331,-2.5053 -5.8208,-3.5173 -2.5723,-1.0287 -5.8761,-1.8415 -9.8608,-2.4222 -4.0182,-0.5806 -8.7588,-0.9357 -14.2963,-0.9524 l -1.7464,-2e-4 z"
     style="fill:#e94d12;fill-rule:evenodd"
     id="path2"
     inkscape:connector-curvature="0" />
  <path
     d="m 138.42706,49.5787 c 6.4188,-0.4195 8.3641,0.2324 11.3897,0.6635 3.0255,0.4316 5.4473,1.0122 7.2323,1.7422 1.7846,0.7299 3.1264,1.5427 3.9777,2.4551 0.866,0.8961 1.3534,1.8418 1.511,2.8206 0.1086,0.9953 -0.0171,1.9576 -0.4122,2.8865 -0.3619,0.9291 -0.8972,1.7586 -1.6063,2.4886 -0.5685,0.6138 -1.6056,1.4101 -3.0976,2.339 -1.5073,0.9459 -3.4423,1.9576 -5.7231,3.0196 -2.3133,1.0619 -4.9285,2.0904 -7.912,3.0857 -9.039,3.0155 -20.2975,6.5847 -33.3846,5.2757 C 10.992661,62.939 10.992661,62.939 138.42706,49.5787 Z"
     style="fill:#ffec00;fill-rule:evenodd"
     id="path4"
     inkscape:connector-curvature="0" />
  <path
     d="m 222.35526,91.7404 -31.3942,-2e-4 -10.6774,-18.4934 -35.1778,18.4934 H 65.956761 C 180.28366,89.5418 196.96186,44.2922 131.91416,38.9738 l 41.7733,7e-4 12.3936,21.466 40.3792,-21.4739 22.8201,0.0562 z m 5.4498,-43.9723 h 9.6415 l -30.7799,35.1778 h -7.5924 l -8.7913,-15.227 z"
     style="fill:#000200;fill-rule:evenodd"
     id="path6"
     inkscape:connector-curvature="0" />
  <path
     d="m 532.95946,0 h 5.6233 c 0,0 -7.4835,16.1961 -22.4505,48.5884 -0.6181,1.4643 -3.8636,8.5519 -9.7368,21.2628 -5.873,12.711 -9.1862,19.9451 -9.9396,21.7024 l -5.7046,0.1756 c 0.7534,-1.7573 4.0938,-9.0499 10.0208,-21.878 5.8461,-12.6522 9.0647,-19.6813 9.6557,-21.0872 l 0.0406,-0.0878 z"
     style="fill:#000200;fill-rule:evenodd"
     id="path8"
     inkscape:connector-curvature="0" />
  <path
     d="m 480.27316,56.4083 c 0.4101,0 0.7616,0 1.0543,0 2.0229,0.0585 3.8705,0.1169 5.5421,0.1756 4.1994,0.2927 7.2561,0.9666 9.1703,2.021 1.3156,0.7029 2.2141,1.6107 2.6956,2.7236 0.4632,1.4058 0.2889,2.9875 -0.5229,4.7445 -0.7534,1.7573 -1.9447,3.3535 -3.5744,4.7887 -1.6297,1.4349 -3.3821,2.5335 -5.2568,3.2948 -2.9697,1.23 -6.8206,2.021 -11.5517,2.3724 -1.9241,0.2344 -6.2925,0.3073 -13.1052,0.2195 -6.8127,-0.0878 -11.3164,-0.1023 -13.5107,-0.0439 h -0.0878 c -10.5706,0.0588 -18.0075,0.1172 -22.3106,0.1759 -0.1632,1.8742 0.2211,3.5143 1.1534,4.9201 1.9266,2.9289 5.5534,4.3347 10.879,4.2175 4.5059,-0.1171 12.5307,-0.1171 24.0745,0 11.5441,0.1172 19.4224,0.1172 23.6352,0 l -2.4223,5.6234 c -4.389,0.1171 -12.3551,0.1171 -23.8989,0 -11.5438,-0.1172 -19.4808,-0.1172 -23.8108,0 -6.8761,0.1756 -11.5904,-1.728 -14.1431,-5.7112 -2.2693,-3.4558 -2.4564,-7.2341 -0.5619,-11.3344 2.463,-5.3303 6.0876,-9.372 10.8743,-12.1252 7.5088,-4.3344 18.477,-6.2675 32.9043,-5.7989 0.8514,0.0587 2.762,0.0439 5.7314,-0.0439 2.9695,-0.0878 5.3169,-0.161 7.0427,-0.2195 z m -1.5845,5.7109 c -1.6132,-0.0585 -4.0575,-0.0291 -7.3331,0.088 -3.2762,0.1172 -5.4862,0.1463 -6.6306,0.0878 -13.1068,-0.4101 -22.6554,1.1128 -28.6459,4.569 -2.1496,1.23 -3.793,2.6945 -4.9291,4.3931 4.5376,-0.0587 12.062,-0.1172 22.5742,-0.1759 2.4871,-0.0584 7.0786,-0.0439 13.7741,0.0442 6.6958,0.0878 10.859,0.0145 12.4903,-0.2198 3.9426,-0.293 6.9957,-0.8788 9.1588,-1.7573 1.0365,-0.4686 1.7748,-0.8933 2.2144,-1.2741 0.4395,-0.3806 0.8351,-0.9518 1.1869,-1.7131 0.2164,-0.4686 0.2754,-0.8495 0.1764,-1.1422 -0.1937,-0.4686 -0.619,-0.8788 -1.2769,-1.2302 -1.5224,-0.7614 -4.0318,-1.2887 -7.5282,-1.5815 -1.5546,-0.0587 -3.2984,-0.088 -5.2313,-0.088 z"
     style="fill:#000200;fill-rule:evenodd"
     id="path10"
     inkscape:connector-curvature="0" />
  <path
     d="m 405.50146,56.4083 c 0.4101,0 0.7616,0 1.0543,0 2.0229,0.0585 3.8705,0.1169 5.5422,0.1756 4.1994,0.2927 7.256,0.9666 9.1703,2.021 1.3155,0.7029 2.2141,1.6107 2.6956,2.7236 0.4631,1.4058 0.2889,2.9875 -0.523,4.7445 -0.7534,1.7573 -1.9447,3.3535 -3.5744,4.7887 -1.6297,1.4349 -3.382,2.5335 -5.2567,3.2948 -2.9697,1.23 -6.8207,2.021 -11.5518,2.3724 -1.9241,0.2344 -6.2925,0.3073 -13.1052,0.2195 -6.8127,-0.0878 -11.3163,-0.1023 -13.5107,-0.0439 h -0.0878 c -10.5706,0.0588 -18.0075,0.1172 -22.3106,0.1759 -0.1632,1.8742 0.2212,3.5143 1.1535,4.9201 1.9265,2.9289 5.5533,4.3347 10.879,4.2175 4.5058,-0.1171 12.5306,-0.1171 24.0744,0 11.5441,0.1172 19.4224,0.1172 23.6352,0 l -2.4223,5.6234 c -4.389,0.1171 -12.3551,0.1171 -23.8989,0 -11.5438,-0.1172 -19.4808,-0.1172 -23.8108,0 -6.876,0.1756 -11.5904,-1.728 -14.1431,-5.7112 -2.2692,-3.4558 -2.4563,-7.2341 -0.5619,-11.3344 2.463,-5.3303 6.0876,-9.372 10.8744,-12.1252 7.5087,-4.3344 18.4769,-6.2675 32.9042,-5.7989 0.8514,0.0587 2.762,0.0439 5.7315,-0.0439 2.9694,-0.0878 5.3168,-0.161 7.0426,-0.2195 z m -1.5845,5.7109 c -1.6132,-0.0585 -4.0575,-0.0291 -7.3331,0.088 -3.2762,0.1172 -5.4862,0.1463 -6.6305,0.0878 -13.1069,-0.4101 -22.6555,1.1128 -28.6459,4.569 -2.1497,1.23 -3.7931,2.6945 -4.9292,4.3931 4.5377,-0.0587 12.062,-0.1172 22.5742,-0.1759 2.4871,-0.0584 7.0786,-0.0439 13.7741,0.0442 6.6958,0.0878 10.859,0.0145 12.4904,-0.2198 3.9425,-0.293 6.9956,-0.8788 9.1587,-1.7573 1.0366,-0.4686 1.7749,-0.8933 2.2144,-1.2741 0.4395,-0.3806 0.8352,-0.9518 1.1869,-1.7131 0.2165,-0.4686 0.2755,-0.8495 0.1764,-1.1422 -0.1937,-0.4686 -0.619,-0.8788 -1.2769,-1.2302 -1.5224,-0.7614 -4.0317,-1.2887 -7.5282,-1.5815 -1.5545,-0.0587 -3.2984,-0.088 -5.2313,-0.088 z"
     style="fill:#000200;fill-rule:evenodd"
     id="path12"
     inkscape:connector-curvature="0" />
  <path
     d="m 358.26636,0.6151 5.5422,0.1756 c -0.8437,1.6988 -4.1476,8.7864 -9.9125,21.2631 -3.9785,8.6106 -6.5902,14.263 -7.8352,16.9575 h 14.9365 l -2.5982,5.6233 h -15.0246 l -15.8329,34.2665 c -1.1098,2.4017 -1.4237,4.1588 -0.9422,5.2719 0.2972,0.8785 1.1392,1.4642 2.5269,1.7572 1.2075,0.1756 2.9513,0.205 5.2313,0.0878 2.8926,-0.1756 4.648,-0.2343 5.265,-0.1756 l -3.0847,5.5353 c -0.293,0 -1.7688,0.0878 -4.4271,0.2637 -2.7757,0.1756 -4.9453,0.1171 -6.5087,-0.1759 -2.6264,-0.527 -4.2976,-1.7279 -5.0128,-3.6024 -0.8733,-2.1672 -0.4302,-5.1544 1.3293,-8.962 l 15.8329,-34.2665 h -14.6732 l 2.5982,-5.6233 h 14.761 c 1.3531,-2.9288 3.965,-8.5813 7.8352,-16.9575 5.7649,-12.4767 9.0962,-19.623 9.9936,-21.4387 z"
     style="fill:#000200;fill-rule:evenodd"
     id="path14"
     inkscape:connector-curvature="0" />
  <path
     d="m 263.74586,56.1447 c 1.8157,0 4.3876,0.0438 7.7151,0.1316 3.3274,0.0878 5.7232,0.132 7.1877,0.132 h 35.1453 l -2.5982,5.6231 h -35.1453 c -0.7616,0 -4.2864,-0.0733 -10.5739,-0.2195 -6.2879,-0.1465 -9.7495,-0.1026 -10.3849,0.1317 -3.33,0.2343 -5.9323,0.7322 -7.8073,1.4936 -0.8919,0.4102 -1.523,0.7616 -1.8925,1.0544 -0.3699,0.293 -0.7035,0.7616 -1.0012,1.4058 -0.4058,0.8785 -0.5931,1.5375 -0.5619,1.9768 0.0313,0.4395 0.2744,0.8642 0.729,1.2741 0.9416,0.8785 2.8833,1.4937 5.8253,1.8451 1.5589,0.1759 3.3634,0.2637 5.4134,0.2637 2.0503,0 4.9114,-0.0439 8.5837,-0.1317 3.6724,-0.0881 6.1235,-0.132 7.3535,-0.132 8.1601,-0.2927 13.2947,-0.4392 15.4035,-0.4392 6.2132,0.1171 10.6195,0.8494 13.2185,2.1965 1.4643,0.7616 2.4394,1.7573 2.9252,2.9873 0.5534,1.4645 0.3702,3.1924 -0.55,5.184 -0.8119,1.7573 -2.0183,3.3536 -3.6183,4.7885 -1.6004,1.4352 -3.3382,2.5334 -5.2129,3.2948 -2.97,1.2302 -6.8048,2.0503 -11.5046,2.4602 -1.8069,0.2343 -6.1605,0.3076 -13.0613,0.2198 -6.9005,-0.0878 -11.4187,-0.1026 -13.5546,-0.0439 h -0.0878 -28.4675 l 2.686,-5.6234 c 6.0963,0.1172 15.527,0.1172 28.292,0 0,0 0.0293,0 0.0878,0 2.3699,-0.0584 6.9468,-0.0439 13.7304,0.0439 6.7833,0.0878 10.9613,0.0149 12.534,-0.2195 3.8841,-0.293 6.8922,-0.9081 9.0238,-1.8453 1.068,-0.4099 1.8289,-0.8201 2.2818,-1.23 0.453,-0.4099 0.8555,-0.9956 1.2072,-1.7573 0.2977,-0.6442 0.3792,-1.2009 0.2442,-1.6695 -0.225,-0.527 -0.7405,-0.9956 -1.5471,-1.4055 -2.0314,-1.0544 -5.8025,-1.6402 -11.3131,-1.7573 -2.5189,0 -6.7317,0.1171 -12.6388,0.3514 l -0.0406,0.0878 c -1.9331,0 -4.7064,0.0439 -8.32,0.1317 -3.6139,0.0878 -6.7241,0.132 -9.3305,0.132 -2.6067,0 -4.9103,-0.1171 -6.9106,-0.3515 -3.7939,-0.4101 -6.4336,-1.2886 -7.9198,-2.636 -0.9098,-0.8201 -1.4138,-1.9477 -1.5123,-3.3826 -0.0982,-1.4352 0.2313,-2.9728 0.9891,-4.6129 0.7306,-1.5814 1.8544,-3.0311 3.3716,-4.3492 1.5167,-1.318 3.1404,-2.3285 4.8711,-3.0314 2.7087,-1.1715 6.1221,-1.9035 10.2405,-2.1966 1.6355,-0.1171 3.4493,-0.1755 5.4409,-0.1755 0.3515,0 0.7029,0 1.0544,0 z"
     style="fill:#000200;fill-rule:evenodd"
     id="path16"
     inkscape:connector-curvature="0" />
  <path
     d="m 147.33446,53.9368 c 3.3235,-0.2172 4.3307,0.1203 5.8973,0.3435 1.5665,0.2235 2.8204,0.5241 3.7447,0.9021 0.924,0.3779 1.6187,0.7987 2.0595,1.2712 0.4484,0.464 0.7008,0.9536 0.7824,1.4604 0.0562,0.5153 -0.009,1.0136 -0.2134,1.4945 -0.1874,0.4811 -0.4646,0.9106 -0.8317,1.2886 -0.2944,0.3178 -0.8314,0.7301 -1.6039,1.2111 -0.7804,0.4897 -1.7823,1.0136 -2.9633,1.5634 -1.1977,0.5498 -2.5518,1.0824 -4.0966,1.5977 -4.6802,1.5614 -10.5095,3.4094 -17.2856,2.7316 -51.471499,-6.9465 -51.471499,-6.9465 14.5106,-13.8641 z"
     style="fill:#000200;fill-rule:evenodd"
     id="path18"
     inkscape:connector-curvature="0" />
</svg>
